<svg xmlns="http://www.w3.org/2000/svg" width="26" height="22"><path d="M25 19s-2.7.01-5.014.01c.011.959.008 2.472-.013 2.61a.734.734 0 0 1-.959.291A11.147 11.147 0 0 1 16.938 19H12c-.827 0-.985-.321-.985-1.153v-.863c.242.009 1.033.028 1.033.028l-.034.977 5.923.011L19 20v-1.994h6V9.019h-6.02v-.984h5.52A1.245 1.245 0 0 1 26 9.2v8.654c0 .829-.173 1.146-1 1.146zm-13.985-2.025H9.406c-.692.61-1.972 1.731-2.669 2.308A.7.7 0 0 1 5.81 19c-.021-.138-.024-1.058-.013-2.017H1.125A.942.942 0 0 1 0 15.847V1.1C0 .268.14 0 .967 0H17.95c.826 0 1.028.237 1.028 1.069v14.154a1.817 1.817 0 0 1-1.591 1.756h-6.374v.005c-.081-.003-.101-.005.002-.005zm6.941-1l.034-14.954L1 1.035v14.944h5.945l.012 1.961 2.02-1.961h8.976zm-13.3-4.4v-.035a.54.54 0 0 1 .511-.545h9.065a.557.557 0 0 1 .511.563v.026a.456.456 0 0 1-.511.443H5.167a.456.456 0 0 1-.51-.444zm7.33-5.55H5.167a.456.456 0 0 1-.511-.443v-.036A.54.54 0 0 1 5.168 5h6.819a.557.557 0 0 1 .511.563v.027a.457.457 0 0 1-.511.443zM5.167 8.006H9.74a.528.528 0 0 1 .511.532v.025a.456.456 0 0 1-.511.443H5.167a.456.456 0 0 1-.511-.443v-.036a.512.512 0 0 1 .512-.514z" fill-rule="evenodd"/></svg>