<svg xmlns="http://www.w3.org/2000/svg" width="23.875" height="23"><path d="M19.473 12.7a.606.606 0 0 0-.581.708v8.572h-3.986v-4.352a.693.693 0 0 0-.67-.694H9.581a.709.709 0 0 0-.708.694v4.352H4.879v-8.656c0-.373 0-.617-.394-.617a.573.573 0 0 0-.6.617v8.994a.681.681 0 0 0 .669.682h4.7a.682.682 0 0 0 .67-.682v-4.2h3.982v4.2a.686.686 0 0 0 .7.682h4.631a.681.681 0 0 0 .669-.682v-8.911c0-.4-.067-.707-.433-.707zm4.311-.853l-5.868-5.853V1.8c0-.4-.109-.573-.5-.573a.5.5 0 0 0-.533.594v2.978L12.406.216A.66.66 0 0 0 11.94 0a.682.682 0 0 0-.493.219L.096 11.77c-.273.277.164.549.454.8.253.3.815-.28 1.087-.556L11.906 1.048 22.59 12.365a.863.863 0 0 0 .542.282.354.354 0 0 0 .344-.046c.254-.257.579-.475.308-.754z" fill-rule="evenodd"/></svg>