<svg xmlns="http://www.w3.org/2000/svg" width="21" height="21"><path d="M17.985 11.555c0-.3.1-.6.1-1a3.055 3.055 0 0 0-.1-1.005l2.142-1.709a.468.468 0 0 0 .1-.6l-2.04-3.518a.578.578 0 0 0-.612-.1l-2.551 1.005a9.732 9.732 0 0 0-1.734-1.005L12.884 1a.406.406 0 0 0-.408-.5H8.4a.547.547 0 0 0-.51.4l-.408 2.714a7.753 7.753 0 0 0-1.735 1.005L3.299 3.614a.636.636 0 0 0-.714.2L.545 7.332a.549.549 0 0 0 .2.6L2.888 9.54c0 .3-.1.6-.1 1.005a3.054 3.054 0 0 0 .1 1L.745 13.254a.471.471 0 0 0-.1.6l2.041 3.518a.578.578 0 0 0 .612.1l2.55-1.005a9.776 9.776 0 0 0 1.735 1.005l.408 2.613a.465.465 0 0 0 .51.4h4.081a.547.547 0 0 0 .51-.4l.408-2.6a9.732 9.732 0 0 0 1.734-1.005l2.551 1.005a.494.494 0 0 0 .612-.2l2.04-3.518a.45.45 0 0 0-.1-.6zm-7.55 2.513a3.518 3.518 0 1 1 3.571-3.518 3.588 3.588 0 0 1-3.571 3.518z"/></svg>