<svg xmlns="http://www.w3.org/2000/svg"><symbol id="icon-ask"><path d="M2.587-.003h19.2c2.651 0 2.4-.247 2.4 2.363v18.9c0 2.61.251 2.363-2.4 2.363h-19.2c-2.651 0-2.4.247-2.4-2.363V2.36c0-2.61-.251-2.363 2.4-2.363zM1.199.803h21.975V22.79H1.199V.803zm11.838 15.973v1.992h-1.759v-1.992h1.759zm-4.286-8.52a4.361 4.361 0 0 1 .764-1.41 3.131 3.131 0 0 1 1.13-.878 3.978 3.978 0 0 1 1.591-.306 4.517 4.517 0 0 1 1.476.192 3.976 3.976 0 0 1 1.224.794 3.177 3.177 0 0 1 .772 1.1 3.679 3.679 0 0 1 .234 1.444 3.113 3.113 0 0 1-.233.943 3.28 3.28 0 0 1-.168.756 3.5 3.5 0 0 1-.371.629c-.179.192-.435.379-.619.56s-.447.343-.625.519a3.316 3.316 0 0 0-.318.56 2.693 2.693 0 0 0-.345.646 2.763 2.763 0 0 0-.13.872v.662h-1.746v-.88a3.328 3.328 0 0 1 .288-1.231 3.7 3.7 0 0 1 .554-.876c.216-.251 1.138-1.147 1.361-1.4a2.262 2.262 0 0 0 .786-1.893 2.1 2.1 0 0 0-.484-1.461 2.516 2.516 0 0 0-1.66-.523 1.784 1.784 0 0 0-.921.2 2.028 2.028 0 0 0-.689.611 2.372 2.372 0 0 0-.441.884 3.561 3.561 0 0 0-.138 1.016H8.534a4.029 4.029 0 0 1 .217-1.53z" fill-rule="evenodd"/></symbol><symbol id="icon-chat"><path d="M25 19s-2.7.01-5.014.01c.011.959.008 2.472-.013 2.61a.734.734 0 0 1-.959.291A11.147 11.147 0 0 1 16.938 19H12c-.827 0-.985-.321-.985-1.153v-.863c.242.009 1.033.028 1.033.028l-.034.977 5.923.011L19 20v-1.994h6V9.019h-6.02v-.984h5.52A1.245 1.245 0 0 1 26 9.2v8.654c0 .829-.173 1.146-1 1.146zm-13.985-2.025H9.406c-.692.61-1.972 1.731-2.669 2.308A.7.7 0 0 1 5.81 19c-.021-.138-.024-1.058-.013-2.017H1.125A.942.942 0 0 1 0 15.847V1.1C0 .268.14 0 .967 0H17.95c.826 0 1.028.237 1.028 1.069v14.154a1.817 1.817 0 0 1-1.591 1.756h-6.374v.005c-.081-.003-.101-.005.002-.005zm6.941-1l.034-14.954L1 1.035v14.944h5.945l.012 1.961 2.02-1.961h8.976zm-13.3-4.4v-.035a.54.54 0 0 1 .511-.545h9.065a.557.557 0 0 1 .511.563v.026a.456.456 0 0 1-.511.443H5.167a.456.456 0 0 1-.51-.444zm7.33-5.55H5.167a.456.456 0 0 1-.511-.443v-.036A.54.54 0 0 1 5.168 5h6.819a.557.557 0 0 1 .511.563v.027a.457.457 0 0 1-.511.443zM5.167 8.006H9.74a.528.528 0 0 1 .511.532v.025a.456.456 0 0 1-.511.443H5.167a.456.456 0 0 1-.511-.443v-.036a.512.512 0 0 1 .512-.514z" fill-rule="evenodd"/></symbol><symbol id="icon-companies"><path d="M9.5 24h-8A1.5 1.5 0 0 1 0 22.5v-21A1.5 1.5 0 0 1 1.5 0h8A1.5 1.5 0 0 1 11 1.5v21A1.5 1.5 0 0 1 9.5 24zm-8-23a.5.5 0 0 0-.5.5v21a.5.5 0 0 0 .5.5h8a.5.5 0 0 0 .5-.5v-21a.5.5 0 0 0-.5-.5h-8zM7 7H4V4h3v3zm0 6.5H4v-3h3v3zM7 20H4v-3h3v3zm12.5 4h-8a1.5 1.5 0 0 1-1.5-1.5v-15A1.5 1.5 0 0 1 11.5 6h8A1.5 1.5 0 0 1 21 7.5v15a1.5 1.5 0 0 1-1.5 1.5zm-8-17a.5.5 0 0 0-.5.5v15a.5.5 0 0 0 .5.5h8a.5.5 0 0 0 .5-.5v-15a.5.5 0 0 0-.5-.5h-8zm5.5 6.5h-3v-3h3v3zm0 6.5h-3v-3h3v3zm-7.376 3.419H11.5V24H9.624v-.581zm1-16.829H12V6h-1.377v.59z" fill-rule="evenodd"/></symbol><symbol id="icon-feed"><path d="M19.473 12.7a.606.606 0 0 0-.581.708v8.572h-3.986v-4.352a.693.693 0 0 0-.67-.694H9.581a.709.709 0 0 0-.708.694v4.352H4.879v-8.656c0-.373 0-.617-.394-.617a.573.573 0 0 0-.6.617v8.994a.681.681 0 0 0 .669.682h4.7a.682.682 0 0 0 .67-.682v-4.2h3.982v4.2a.686.686 0 0 0 .7.682h4.631a.681.681 0 0 0 .669-.682v-8.911c0-.4-.067-.707-.433-.707zm4.311-.853l-5.868-5.853V1.8c0-.4-.109-.573-.5-.573a.5.5 0 0 0-.533.594v2.978L12.406.216A.66.66 0 0 0 11.94 0a.682.682 0 0 0-.493.219L.096 11.77c-.273.277.164.549.454.8.253.3.815-.28 1.087-.556L11.906 1.048 22.59 12.365a.863.863 0 0 0 .542.282.354.354 0 0 0 .344-.046c.254-.257.579-.475.308-.754z" fill-rule="evenodd"/></symbol><symbol id="icon-notifications"><path d="M23.924 20.677a.7.7 0 0 1-.642.375H.738a.7.7 0 0 1-.642-.375 1.283 1.283 0 0 1-.091-.493.706.706 0 0 1 .144-.4 16.377 16.377 0 0 0 2.108-4.369A31.868 31.868 0 0 0 4 9c.222-1.694.469-3.386 1.241-4.3a7.437 7.437 0 0 1 1.336-1.241 8.252 8.252 0 0 1 2.762-1.332 2.6 2.6 0 0 1 .943-1.512A2.669 2.669 0 0 1 12 0a2.7 2.7 0 0 1 1.728.608 2.576 2.576 0 0 1 .956 1.512 8.244 8.244 0 0 1 2.749 1.332 7.342 7.342 0 0 1 1.335 1.241 8 8 0 0 1 1.7 4.047 42.515 42.515 0 0 0 1.284 6.67 17.086 17.086 0 0 0 2.12 4.527.665.665 0 0 1 .131.388.85.85 0 0 1-.079.352zm-3.758-5.587a52.606 52.606 0 0 1-1.152-6.166 6.667 6.667 0 0 0-1.44-3.413 6 6 0 0 0-1.165-1.021 7.232 7.232 0 0 0-2.566-1.1.717.717 0 0 1-.563-.685V2.68A1.256 1.256 0 0 0 12 1.439a1.271 1.271 0 0 0-1.283 1.241v.026a.691.691 0 0 1-.537.685 7.318 7.318 0 0 0-2.579 1.1 6.02 6.02 0 0 0-2.6 4.434 57.621 57.621 0 0 1-1.152 6.179A21.267 21.267 0 0 1 2 20h20a21.842 21.842 0 0 1-1.834-4.91zm-6.657 8.285a2.016 2.016 0 0 1-1.5.631 2.075 2.075 0 0 1-1.516-.631 2.011 2.011 0 0 1-.626-1.483h4.269a2.052 2.052 0 0 1-.627 1.483z" fill-rule="evenodd"/></symbol><symbol id="icon-search"><path d="M6.747 0A6.76 6.76 0 1 1 0 6.76 6.753 6.753 0 0 1 6.747 0zm.016 1.211a5.564 5.564 0 1 1-5.547 5.564 5.556 5.556 0 0 1 5.547-5.564zm9.039 14.61a.576.576 0 0 1-.815 0l-4.047-4.014a.577.577 0 1 1 .815-.817L15.8 15a.578.578 0 0 1 0 .821z" fill-rule="evenodd"/></symbol><symbol id="icon-services"><path d="M17.5 24h-16A1.5 1.5 0 0 1 0 22.5v-21A1.5 1.5 0 0 1 1.5 0h16A1.5 1.5 0 0 1 19 1.5v21a1.5 1.5 0 0 1-1.5 1.5zM1.5 1a.5.5 0 0 0-.5.5v21a.5.5 0 0 0 .5.5h16a.5.5 0 0 0 .5-.5v-21a.5.5 0 0 0-.5-.5h-16zM16 9H3V7h13v2zm0-4H7V3h9v2zm0 16H3v-2h13v2zm0-4H3v-2h13v2zm0-4H3v-2h13v2z" fill-rule="evenodd"/></symbol><symbol id="icon-settings"><path d="M17.985 11.555c0-.3.1-.6.1-1a3.055 3.055 0 0 0-.1-1.005l2.142-1.709a.468.468 0 0 0 .1-.6l-2.04-3.518a.578.578 0 0 0-.612-.1l-2.551 1.005a9.732 9.732 0 0 0-1.734-1.005L12.884 1a.406.406 0 0 0-.408-.5H8.4a.547.547 0 0 0-.51.4l-.408 2.714a7.753 7.753 0 0 0-1.735 1.005L3.299 3.614a.636.636 0 0 0-.714.2L.545 7.332a.549.549 0 0 0 .2.6L2.888 9.54c0 .3-.1.6-.1 1.005a3.054 3.054 0 0 0 .1 1L.745 13.254a.471.471 0 0 0-.1.6l2.041 3.518a.578.578 0 0 0 .612.1l2.55-1.005a9.776 9.776 0 0 0 1.735 1.005l.408 2.613a.465.465 0 0 0 .51.4h4.081a.547.547 0 0 0 .51-.4l.408-2.6a9.732 9.732 0 0 0 1.734-1.005l2.551 1.005a.494.494 0 0 0 .612-.2l2.04-3.518a.45.45 0 0 0-.1-.6zm-7.55 2.513a3.518 3.518 0 1 1 3.571-3.518 3.588 3.588 0 0 1-3.571 3.518z"/></symbol></svg>